<svg xmlns="http://www.w3.org/2000/svg" viewBox="0 0 512 512">
  <defs>
    <linearGradient id="bg" x1="0%" y1="0%" x2="100%" y2="100%">
      <stop offset="0%" stop-color="#1a3a5c"/>
      <stop offset="100%" stop-color="#0a1628"/>
    </linearGradient>
    <linearGradient id="gold" x1="0%" y1="0%" x2="0%" y2="100%">
      <stop offset="0%" stop-color="#f0d078"/>
      <stop offset="100%" stop-color="#c9a227"/>
    </linearGradient>
  </defs>
  <!-- app background -->
  <rect width="512" height="512" rx="96" fill="url(#bg)"/>
  <!-- soft shelf shadow -->
  <ellipse cx="256" cy="378" rx="168" ry="18" fill="#000" opacity="0.22"/>
  <!-- wooden shelf -->
  <rect x="88" y="352" width="336" height="28" rx="6" fill="url(#gold)"/>
  <rect x="88" y="372" width="336" height="8" rx="2" fill="#8a6b1a" opacity="0.55"/>
  <!-- book spines (left to right) -->
  <rect x="118" y="168" width="48" height="184" rx="4" fill="#3d6b8c"/>
  <rect x="130" y="200" width="24" height="6" rx="2" fill="#e8c547" opacity="0.85"/>
  <rect x="130" y="220" width="24" height="6" rx="2" fill="#e8c547" opacity="0.55"/>

  <rect x="174" y="148" width="56" height="204" rx="4" fill="#c9a227"/>
  <rect x="188" y="190" width="28" height="6" rx="2" fill="#0a1628" opacity="0.45"/>
  <rect x="188" y="210" width="28" height="6" rx="2" fill="#0a1628" opacity="0.3"/>

  <rect x="238" y="128" width="52" height="224" rx="4" fill="#f6f1e6"/>
  <rect x="250" y="175" width="28" height="6" rx="2" fill="#1a3a5c" opacity="0.55"/>
  <rect x="250" y="195" width="28" height="6" rx="2" fill="#1a3a5c" opacity="0.35"/>

  <rect x="298" y="160" width="50" height="192" rx="4" fill="#5a8fb0"/>
  <rect x="310" y="198" width="26" height="6" rx="2" fill="#f6f1e6" opacity="0.8"/>
  <rect x="310" y="218" width="26" height="6" rx="2" fill="#f6f1e6" opacity="0.5"/>

  <rect x="356" y="180" width="44" height="172" rx="4" fill="#2a5070"/>
  <rect x="366" y="215" width="24" height="6" rx="2" fill="#e8c547" opacity="0.75"/>
</svg>
